<mxfile host="app.diagrams.net" modified="2023-11-11T22:52:21.722Z" agent="Mozilla/5.0 (Windows NT 10.0; Win64; x64) AppleWebKit/537.36 (KHTML, like Gecko) Chrome/119.0.0.0 Safari/537.36" version="21.6.2" etag="sGvrNd0e-a5_2bAOr5u9" type="github">
  <diagram name="Seite-1" id="n0MJJiwyC_8FTsejUfLi">
    <mxGraphModel>
      <root>
        <mxCell id="0" />
        <mxCell id="1" parent="0" />
      </root>
    </mxGraphModel>
  </diagram>
</mxfile>
